<svg width="106" height="30" viewBox="0 0 106 30" fill="none" xmlns="http://www.w3.org/2000/svg">
<path d="M16.8236 1.58936L11.6223 18.7358V28.4722H5.00146V18.7358L0 1.58936H6.5388C7.56369 6.83679 8.14104 10.3658 8.27086 12.1765C8.66715 9.31361 9.32991 5.78457 10.2591 1.58936H16.8236Z" fill="white"/>
<path d="M45.0696 17.2957C45.0696 19.998 45.0047 21.9111 44.8748 23.0351C44.7457 24.1494 44.325 25.2099 43.6552 26.1098C42.9379 27.0581 41.976 27.7933 40.8726 28.2364C39.5826 28.7581 38.2002 29.0127 36.809 28.9846C35.457 29.006 34.1137 28.7659 32.8529 28.2774C31.736 27.8458 30.7604 27.1133 30.0344 26.161C29.3407 25.2699 28.9014 24.2073 28.7636 23.0863C28.5923 21.1543 28.5238 19.2145 28.5586 17.2752V12.6632C28.526 10.7497 28.591 8.83581 28.7533 6.92894C28.8796 5.81394 29.3006 4.75268 29.9729 3.85427C30.6851 2.90358 31.6413 2.16339 32.7401 1.71226C34.0322 1.19187 35.4164 0.939084 36.809 0.969204C38.1589 0.94653 39.5004 1.18492 40.7599 1.67126C41.878 2.10324 42.8551 2.83562 43.5835 3.78765C44.2737 4.68086 44.7125 5.74243 44.8543 6.86232C45.0229 8.79282 45.0913 10.7308 45.0593 12.6683L45.0696 17.2957ZM37.9363 8.46628C37.9861 7.66086 37.9153 6.85253 37.7262 6.06804C37.6556 5.9002 37.5326 5.75966 37.3756 5.66732C37.2187 5.57499 37.0361 5.53581 36.8551 5.55559C36.688 5.54744 36.5216 5.58225 36.3717 5.65671C36.2219 5.73117 36.0937 5.8428 35.9993 5.98093C35.7994 6.26277 35.7021 7.09805 35.7021 8.47653V21.0263C35.6497 21.994 35.7151 22.9646 35.8968 23.9165C35.9636 24.0971 36.0897 24.2496 36.2545 24.3492C36.4192 24.4488 36.6129 24.4896 36.8038 24.4648C37.0089 24.4837 37.2141 24.4306 37.3843 24.3147C37.5545 24.1987 37.679 24.0271 37.7365 23.8294C37.9202 22.8396 37.9889 21.832 37.9415 20.8265V8.47653L37.9363 8.46628Z" fill="white"/>
<path d="M75.4115 17.2958C75.4429 19.2111 75.3762 21.1267 75.2116 23.0352C75.087 24.1506 74.6659 25.2123 73.992 26.1099C73.2827 27.0633 72.3256 27.8041 71.2248 28.2519C69.9348 28.7736 68.5523 29.0281 67.1611 29C65.8092 29.0215 64.4658 28.7813 63.205 28.2929C62.0866 27.8614 61.1094 27.1289 60.3815 26.1765C59.6897 25.2842 59.2507 24.2221 59.1106 23.1018C58.942 21.1696 58.8736 19.23 58.9056 17.2907V12.6787C58.9056 9.97638 58.9705 8.06495 59.1004 6.94441C59.2308 5.82957 59.6533 4.76893 60.3251 3.86974C61.0372 2.91904 61.9935 2.17886 63.0923 1.72772C64.3824 1.20678 65.765 0.953965 67.156 0.984675C68.5076 0.961597 69.8509 1.19998 71.1121 1.68672C72.2294 2.1201 73.2062 2.85223 73.9356 3.80312C74.6259 4.69633 75.0647 5.7579 75.2065 6.87779C75.3751 8.80829 75.4435 10.7462 75.4115 12.6838V17.2958ZM68.2783 8.46637C68.328 7.66095 68.2572 6.85262 68.0682 6.06813C67.9982 5.89978 67.8753 5.75875 67.7182 5.66631C67.5611 5.57388 67.3781 5.53505 67.197 5.55568C67.0299 5.54753 66.8635 5.58234 66.7137 5.6568C66.5638 5.73126 66.4356 5.84289 66.3412 5.98101C66.1414 6.26286 66.044 7.09814 66.044 8.47662V21.0264C65.9944 21.9941 66.0598 22.9643 66.2387 23.9166C66.3056 24.0971 66.4317 24.2497 66.5964 24.3493C66.7612 24.4489 66.9548 24.4896 67.1457 24.4649C67.351 24.4848 67.5567 24.4321 67.7271 24.316C67.8975 24.1999 68.0218 24.0278 68.0784 23.8295C68.2621 22.8397 68.3308 21.8321 68.2834 20.8265V8.47662L68.2783 8.46637Z" fill="white"/>
<path d="M105.148 1.58936L101.52 28.462H90.6923L86.5928 1.58936H94.1104C94.9849 8.9959 95.6101 15.2597 95.9859 20.3807C96.3548 15.1982 96.746 10.5998 97.1594 6.5857L97.6718 1.58936H105.148Z" fill="white"/>
</svg>