<svg width="14" height="14" viewBox="0 0 14 14" fill="none" xmlns="http://www.w3.org/2000/svg">
<path fill-rule="evenodd" clip-rule="evenodd" d="M7.5 1.16675C7.5 0.890606 7.27614 0.666748 7 0.666748C6.72386 0.666748 6.5 0.890606 6.5 1.16675V6.50008H1.16675C0.890606 6.50008 0.666748 6.72393 0.666748 7.00008C0.666748 7.27622 0.890606 7.50008 1.16675 7.50008H6.5V12.8334C6.5 13.1096 6.72386 13.3334 7 13.3334C7.27614 13.3334 7.5 13.1096 7.5 12.8334V7.50008H12.8334C13.1096 7.50008 13.3334 7.27622 13.3334 7.00008C13.3334 6.72393 13.1096 6.50008 12.8334 6.50008H7.5V1.16675Z" fill="white"/>
</svg>
